<svg width="422" height="362" viewBox="0 0 422 362" fill="none" xmlns="http://www.w3.org/2000/svg">
<ellipse cx="42.5553" cy="358.931" rx="2.82006" ry="2.85096" transform="rotate(-90 42.5553 358.931)" fill="#70C217"/>
<ellipse cx="42.5553" cy="317.571" rx="2.82006" ry="2.85096" transform="rotate(-90 42.5553 317.571)" fill="#70C217"/>
<ellipse cx="42.5553" cy="276.21" rx="2.82006" ry="2.85096" transform="rotate(-90 42.5553 276.21)" fill="#70C217"/>
<ellipse cx="42.5553" cy="234.849" rx="2.82006" ry="2.85096" transform="rotate(-90 42.5553 234.849)" fill="#70C217"/>
<ellipse cx="42.5553" cy="193.489" rx="2.82006" ry="2.85096" transform="rotate(-90 42.5553 193.489)" fill="#70C217"/>
<ellipse cx="84.3695" cy="358.932" rx="2.82006" ry="2.85096" transform="rotate(-90 84.3695 358.932)" fill="#70C217"/>
<ellipse cx="84.3695" cy="317.571" rx="2.82006" ry="2.85096" transform="rotate(-90 84.3695 317.571)" fill="#70C217"/>
<ellipse cx="84.3695" cy="276.21" rx="2.82006" ry="2.85096" transform="rotate(-90 84.3695 276.21)" fill="#70C217"/>
<ellipse cx="84.3695" cy="234.849" rx="2.82006" ry="2.85096" transform="rotate(-90 84.3695 234.849)" fill="#70C217"/>
<ellipse cx="84.3695" cy="193.489" rx="2.82006" ry="2.85096" transform="rotate(-90 84.3695 193.489)" fill="#70C217"/>
<ellipse cx="126.183" cy="358.932" rx="2.82006" ry="2.85096" transform="rotate(-90 126.183 358.932)" fill="#70C217"/>
<ellipse cx="126.183" cy="317.571" rx="2.82006" ry="2.85096" transform="rotate(-90 126.183 317.571)" fill="#70C217"/>
<ellipse cx="126.183" cy="276.21" rx="2.82006" ry="2.85096" transform="rotate(-90 126.183 276.21)" fill="#70C217"/>
<ellipse cx="126.183" cy="234.849" rx="2.82006" ry="2.85096" transform="rotate(-90 126.183 234.849)" fill="#70C217"/>
<ellipse cx="126.183" cy="193.489" rx="2.82006" ry="2.85096" transform="rotate(-90 126.183 193.489)" fill="#70C217"/>
<ellipse cx="167.998" cy="358.932" rx="2.82006" ry="2.85096" transform="rotate(-90 167.998 358.932)" fill="#70C217"/>
<ellipse cx="167.998" cy="317.571" rx="2.82006" ry="2.85096" transform="rotate(-90 167.998 317.571)" fill="#70C217"/>
<ellipse cx="167.998" cy="276.21" rx="2.82006" ry="2.85096" transform="rotate(-90 167.998 276.21)" fill="#70C217"/>
<ellipse cx="167.998" cy="234.849" rx="2.82006" ry="2.85096" transform="rotate(-90 167.998 234.849)" fill="#70C217"/>
<ellipse cx="167.998" cy="193.489" rx="2.82006" ry="2.85096" transform="rotate(-90 167.998 193.489)" fill="#70C217"/>
<ellipse cx="209.812" cy="358.932" rx="2.82006" ry="2.85096" transform="rotate(-90 209.812 358.932)" fill="#70C217"/>
<ellipse cx="209.812" cy="317.571" rx="2.82006" ry="2.85096" transform="rotate(-90 209.812 317.571)" fill="#70C217"/>
<ellipse cx="209.812" cy="276.21" rx="2.82006" ry="2.85096" transform="rotate(-90 209.812 276.21)" fill="#70C217"/>
<ellipse cx="209.812" cy="234.849" rx="2.82006" ry="2.85096" transform="rotate(-90 209.812 234.849)" fill="#70C217"/>
<ellipse cx="209.812" cy="193.489" rx="2.82006" ry="2.85096" transform="rotate(-90 209.812 193.489)" fill="#70C217"/>
<ellipse cx="251.626" cy="358.932" rx="2.82006" ry="2.85096" transform="rotate(-90 251.626 358.932)" fill="#70C217"/>
<ellipse cx="251.626" cy="317.571" rx="2.82006" ry="2.85096" transform="rotate(-90 251.626 317.571)" fill="#70C217"/>
<ellipse cx="251.626" cy="276.21" rx="2.82006" ry="2.85096" transform="rotate(-90 251.626 276.21)" fill="#70C217"/>
<ellipse cx="251.626" cy="234.849" rx="2.82006" ry="2.85096" transform="rotate(-90 251.626 234.849)" fill="#70C217"/>
<ellipse cx="251.626" cy="193.489" rx="2.82006" ry="2.85096" transform="rotate(-90 251.626 193.489)" fill="#70C217"/>
<ellipse cx="293.44" cy="358.932" rx="2.82006" ry="2.85096" transform="rotate(-90 293.44 358.932)" fill="#70C217"/>
<ellipse cx="293.44" cy="317.571" rx="2.82006" ry="2.85096" transform="rotate(-90 293.44 317.571)" fill="#70C217"/>
<ellipse cx="293.44" cy="276.21" rx="2.82006" ry="2.85096" transform="rotate(-90 293.44 276.21)" fill="#70C217"/>
<ellipse cx="293.44" cy="234.849" rx="2.82006" ry="2.85096" transform="rotate(-90 293.44 234.849)" fill="#70C217"/>
<ellipse cx="293.44" cy="193.489" rx="2.82006" ry="2.85096" transform="rotate(-90 293.44 193.489)" fill="#70C217"/>
<ellipse cx="335.254" cy="358.932" rx="2.82006" ry="2.85096" transform="rotate(-90 335.254 358.932)" fill="#70C217"/>
<ellipse cx="335.254" cy="317.571" rx="2.82006" ry="2.85096" transform="rotate(-90 335.254 317.571)" fill="#70C217"/>
<ellipse cx="335.254" cy="276.21" rx="2.82006" ry="2.85096" transform="rotate(-90 335.254 276.21)" fill="#70C217"/>
<ellipse cx="335.254" cy="234.849" rx="2.82006" ry="2.85096" transform="rotate(-90 335.254 234.849)" fill="#70C217"/>
<ellipse cx="335.254" cy="193.489" rx="2.82006" ry="2.85096" transform="rotate(-90 335.254 193.489)" fill="#70C217"/>
<ellipse cx="377.068" cy="358.932" rx="2.82006" ry="2.85096" transform="rotate(-90 377.068 358.932)" fill="#70C217"/>
<ellipse cx="377.068" cy="317.571" rx="2.82006" ry="2.85096" transform="rotate(-90 377.068 317.571)" fill="#70C217"/>
<ellipse cx="377.068" cy="276.21" rx="2.82006" ry="2.85096" transform="rotate(-90 377.068 276.21)" fill="#70C217"/>
<ellipse cx="377.068" cy="234.849" rx="2.82006" ry="2.85096" transform="rotate(-90 377.068 234.849)" fill="#70C217"/>
<ellipse cx="377.068" cy="193.489" rx="2.82006" ry="2.85096" transform="rotate(-90 377.068 193.489)" fill="#70C217"/>
<ellipse cx="418.882" cy="358.932" rx="2.82006" ry="2.85096" transform="rotate(-90 418.882 358.932)" fill="#70C217"/>
<ellipse cx="418.882" cy="317.571" rx="2.82006" ry="2.85096" transform="rotate(-90 418.882 317.571)" fill="#70C217"/>
<ellipse cx="418.882" cy="276.21" rx="2.82006" ry="2.85096" transform="rotate(-90 418.882 276.21)" fill="#70C217"/>
<ellipse cx="418.882" cy="234.849" rx="2.82006" ry="2.85096" transform="rotate(-90 418.882 234.849)" fill="#70C217"/>
<ellipse cx="418.882" cy="193.489" rx="2.82006" ry="2.85096" transform="rotate(-90 418.882 193.489)" fill="#70C217"/>
<path d="M375.412 122.639C375.412 179.137 329.102 224.984 271.919 224.984C214.735 224.984 168.425 179.137 168.425 122.639C168.425 66.1419 214.735 20.2952 271.919 20.2952C329.102 20.2952 375.412 66.1419 375.412 122.639Z" stroke="#FFBA49" stroke-width="5"/>
<path d="M50.1502 26.1987C50.1502 39.1579 39.5221 49.7097 26.3541 49.7097C13.1862 49.7097 2.55811 39.1579 2.55811 26.1987C2.55811 13.2396 13.1862 2.68774 26.3541 2.68774C39.5221 2.68774 50.1502 13.2396 50.1502 26.1987Z" stroke="#FFBA49" stroke-width="5"/>
</svg>
