<svg width="342" height="578" viewBox="0 0 342 578" fill="none" xmlns="http://www.w3.org/2000/svg">
<ellipse cx="197.384" cy="574.809" rx="2.85096" ry="2.82006" transform="rotate(-180 197.384 574.809)" fill="#70C217"/>
<ellipse cx="155.57" cy="574.809" rx="2.85096" ry="2.82006" transform="rotate(-180 155.57 574.809)" fill="#70C217"/>
<ellipse cx="113.756" cy="574.809" rx="2.85096" ry="2.82006" transform="rotate(-180 113.756 574.809)" fill="#70C217"/>
<ellipse cx="71.9419" cy="574.809" rx="2.85096" ry="2.82006" transform="rotate(-180 71.9419 574.809)" fill="#70C217"/>
<ellipse cx="30.1279" cy="574.809" rx="2.85096" ry="2.82006" transform="rotate(-180 30.1279 574.809)" fill="#70C217"/>
<ellipse cx="197.384" cy="533.448" rx="2.85096" ry="2.82006" transform="rotate(-180 197.384 533.448)" fill="#70C217"/>
<ellipse cx="155.57" cy="533.448" rx="2.85096" ry="2.82006" transform="rotate(-180 155.57 533.448)" fill="#70C217"/>
<ellipse cx="113.756" cy="533.448" rx="2.85096" ry="2.82006" transform="rotate(-180 113.756 533.448)" fill="#70C217"/>
<ellipse cx="71.9419" cy="533.448" rx="2.85096" ry="2.82006" transform="rotate(-180 71.9419 533.448)" fill="#70C217"/>
<ellipse cx="30.1279" cy="533.448" rx="2.85096" ry="2.82006" transform="rotate(-180 30.1279 533.448)" fill="#70C217"/>
<ellipse cx="197.384" cy="492.087" rx="2.85096" ry="2.82006" transform="rotate(-180 197.384 492.087)" fill="#70C217"/>
<ellipse cx="155.57" cy="492.087" rx="2.85096" ry="2.82006" transform="rotate(-180 155.57 492.087)" fill="#70C217"/>
<ellipse cx="113.756" cy="492.087" rx="2.85096" ry="2.82006" transform="rotate(-180 113.756 492.087)" fill="#70C217"/>
<ellipse cx="71.9419" cy="492.087" rx="2.85096" ry="2.82006" transform="rotate(-180 71.9419 492.087)" fill="#70C217"/>
<ellipse cx="30.1279" cy="492.087" rx="2.85096" ry="2.82006" transform="rotate(-180 30.1279 492.087)" fill="#70C217"/>
<ellipse cx="197.384" cy="450.726" rx="2.85096" ry="2.82006" transform="rotate(-180 197.384 450.726)" fill="#70C217"/>
<ellipse cx="155.57" cy="450.726" rx="2.85096" ry="2.82006" transform="rotate(-180 155.57 450.726)" fill="#70C217"/>
<ellipse cx="113.756" cy="450.726" rx="2.85096" ry="2.82006" transform="rotate(-180 113.756 450.726)" fill="#70C217"/>
<ellipse cx="71.9419" cy="450.726" rx="2.85096" ry="2.82006" transform="rotate(-180 71.9419 450.726)" fill="#70C217"/>
<ellipse cx="30.1279" cy="450.726" rx="2.85096" ry="2.82006" transform="rotate(-180 30.1279 450.726)" fill="#70C217"/>
<ellipse cx="197.384" cy="409.365" rx="2.85096" ry="2.82006" transform="rotate(-180 197.384 409.365)" fill="#70C217"/>
<ellipse cx="155.57" cy="409.365" rx="2.85096" ry="2.82006" transform="rotate(-180 155.57 409.365)" fill="#70C217"/>
<ellipse cx="113.756" cy="409.365" rx="2.85096" ry="2.82006" transform="rotate(-180 113.756 409.365)" fill="#70C217"/>
<ellipse cx="71.9419" cy="409.365" rx="2.85096" ry="2.82006" transform="rotate(-180 71.9419 409.365)" fill="#70C217"/>
<ellipse cx="30.1279" cy="409.365" rx="2.85096" ry="2.82006" transform="rotate(-180 30.1279 409.365)" fill="#70C217"/>
<ellipse cx="197.384" cy="368.005" rx="2.85096" ry="2.82006" transform="rotate(-180 197.384 368.005)" fill="#70C217"/>
<ellipse cx="155.57" cy="368.005" rx="2.85096" ry="2.82006" transform="rotate(-180 155.57 368.005)" fill="#70C217"/>
<ellipse cx="113.756" cy="368.005" rx="2.85096" ry="2.82006" transform="rotate(-180 113.756 368.005)" fill="#70C217"/>
<ellipse cx="71.9419" cy="368.005" rx="2.85096" ry="2.82006" transform="rotate(-180 71.9419 368.005)" fill="#70C217"/>
<ellipse cx="30.1279" cy="368.005" rx="2.85096" ry="2.82006" transform="rotate(-180 30.1279 368.005)" fill="#70C217"/>
<ellipse cx="197.384" cy="326.644" rx="2.85096" ry="2.82006" transform="rotate(-180 197.384 326.644)" fill="#70C217"/>
<ellipse cx="155.57" cy="326.644" rx="2.85096" ry="2.82006" transform="rotate(-180 155.57 326.644)" fill="#70C217"/>
<ellipse cx="113.756" cy="326.644" rx="2.85096" ry="2.82006" transform="rotate(-180 113.756 326.644)" fill="#70C217"/>
<ellipse cx="71.9419" cy="326.644" rx="2.85096" ry="2.82006" transform="rotate(-180 71.9419 326.644)" fill="#70C217"/>
<ellipse cx="30.1279" cy="326.644" rx="2.85096" ry="2.82006" transform="rotate(-180 30.1279 326.644)" fill="#70C217"/>
<ellipse cx="197.384" cy="285.283" rx="2.85096" ry="2.82006" transform="rotate(-180 197.384 285.283)" fill="#70C217"/>
<ellipse cx="155.57" cy="285.283" rx="2.85096" ry="2.82006" transform="rotate(-180 155.57 285.283)" fill="#70C217"/>
<ellipse cx="113.756" cy="285.283" rx="2.85096" ry="2.82006" transform="rotate(-180 113.756 285.283)" fill="#70C217"/>
<ellipse cx="71.9419" cy="285.283" rx="2.85096" ry="2.82006" transform="rotate(-180 71.9419 285.283)" fill="#70C217"/>
<ellipse cx="30.1279" cy="285.283" rx="2.85096" ry="2.82006" transform="rotate(-180 30.1279 285.283)" fill="#70C217"/>
<ellipse cx="197.384" cy="243.922" rx="2.85096" ry="2.82006" transform="rotate(-180 197.384 243.922)" fill="#70C217"/>
<ellipse cx="155.57" cy="243.922" rx="2.85096" ry="2.82006" transform="rotate(-180 155.57 243.922)" fill="#70C217"/>
<ellipse cx="113.756" cy="243.922" rx="2.85096" ry="2.82006" transform="rotate(-180 113.756 243.922)" fill="#70C217"/>
<ellipse cx="71.9419" cy="243.922" rx="2.85096" ry="2.82006" transform="rotate(-180 71.9419 243.922)" fill="#70C217"/>
<ellipse cx="30.1279" cy="243.922" rx="2.85096" ry="2.82006" transform="rotate(-180 30.1279 243.922)" fill="#70C217"/>
<ellipse cx="197.384" cy="202.561" rx="2.85096" ry="2.82006" transform="rotate(-180 197.384 202.561)" fill="#70C217"/>
<ellipse cx="155.57" cy="202.561" rx="2.85096" ry="2.82006" transform="rotate(-180 155.57 202.561)" fill="#70C217"/>
<ellipse cx="113.756" cy="202.561" rx="2.85096" ry="2.82006" transform="rotate(-180 113.756 202.561)" fill="#70C217"/>
<ellipse cx="71.9419" cy="202.561" rx="2.85096" ry="2.82006" transform="rotate(-180 71.9419 202.561)" fill="#70C217"/>
<ellipse cx="30.1279" cy="202.561" rx="2.85096" ry="2.82006" transform="rotate(-180 30.1279 202.561)" fill="#70C217"/>
<path d="M338.711 196.94C338.711 284.157 267.225 354.908 178.985 354.908C90.7449 354.908 19.2588 284.157 19.2588 196.94C19.2588 109.722 90.7449 38.9719 178.985 38.9719C267.225 38.9719 338.711 109.722 338.711 196.94Z" stroke="#FFBA49" stroke-width="5"/>
<path d="M50.6686 26.4678C50.6686 39.4269 40.0405 49.9788 26.8726 49.9788C13.7046 49.9788 3.07654 39.4269 3.07654 26.4678C3.07654 13.5086 13.7046 2.95679 26.8726 2.95679C40.0405 2.95679 50.6686 13.5086 50.6686 26.4678Z" stroke="#FFBA49" stroke-width="5"/>
</svg>
